<?xml version="1.0" encoding="UTF-8" standalone="no"?>
<!-- Created with Inkscape (http://www.inkscape.org/) -->

<svg
   width="256mm"
   height="256mm"
   viewBox="0 0 255.99999 256"
   version="1.1"
   id="svg5"
   inkscape:version="1.2.2 (732a01da63, 2022-12-09)"
   sodipodi:docname="violin.svg"
   xml:space="preserve"
   xmlns:inkscape="http://www.inkscape.org/namespaces/inkscape"
   xmlns:sodipodi="http://sodipodi.sourceforge.net/DTD/sodipodi-0.dtd"
   xmlns="http://www.w3.org/2000/svg"
   xmlns:svg="http://www.w3.org/2000/svg"><sodipodi:namedview
     id="namedview7"
     pagecolor="#ffffff"
     bordercolor="#000000"
     borderopacity="0.25"
     inkscape:showpageshadow="false"
     inkscape:pageopacity="0.0"
     inkscape:pagecheckerboard="0"
     inkscape:deskcolor="#d1d1d1"
     inkscape:document-units="px"
     showgrid="true"
     inkscape:zoom="0.72776573"
     inkscape:cx="123.66617"
     inkscape:cy="417.0298"
     inkscape:window-width="1920"
     inkscape:window-height="1121"
     inkscape:window-x="-9"
     inkscape:window-y="-9"
     inkscape:window-maximized="1"
     inkscape:current-layer="layer1"><inkscape:grid
       type="xygrid"
       id="grid3331"
       spacingx="15.999999"
       spacingy="15.999999"
       empspacing="32"
       originx="0"
       originy="0"
       units="mm" /></sodipodi:namedview><defs
     id="defs2" /><g
     inkscape:label="Layer 1"
     inkscape:groupmode="layer"
     id="layer1"><path
       style="opacity:0.4;fill:none;stroke:#0000ff;stroke-width:1.22051;stroke-dasharray:none;paint-order:fill markers stroke"
       d="m 0,127.99999 c 0,0 12.648576,-58.034818 23.108684,-55.588761 10.460108,2.446055 7.216512,30.585121 15.480959,35.712451 10.250827,6.35969 12.13373,-90.504145 18.828199,-91.97178 6.694469,-1.467633 11.296916,104.20207 20.501813,106.64812 9.204894,2.44605 9.20724,-53.851511 17.572981,-56.259329 13.597884,-3.913733 17.987574,154.424409 30.961914,154.101639 9.83265,-0.2446 9.62332,-39.13692 16.31778,-43.0506 6.69447,-3.9137 15.48096,30.82033 22.59384,34.24479 7.9469,3.37208 12.90941,-81.13235 36.88695,-82.76674 5.61127,-0.38251 4.42702,2.66112 7.34606,2.4863 1.63177,-0.0977 2.69657,-3.44365 7.00003,-3.94314 2.84877,-0.33064 2.36462,5.72438 8.18038,5.46053 8.45534,-0.3836 6.06677,-3.66916 11.92443,-3.17996 5.85766,0.48923 6.48528,7.8275 10.25091,7.8275 3.76565,0 9.04506,-9.72102 9.04506,-9.72102"
       id="path376"
       sodipodi:nodetypes="cssssssscssssssc" /></g></svg>
